<svg id="Layer_1" data-name="Layer 1" xmlns="http://www.w3.org/2000/svg" viewBox="0 0 500 500"><defs><style>.cls-1{fill:#141517;}.cls-2{fill:#b23f33;}.cls-3{fill:#9b6026;}.cls-4{fill:#d08530;}.cls-5{fill:#aa8b35;}.cls-6{fill:#e7c145;}.cls-7{fill:#45934e;}.cls-8{fill:#55b764;}.cls-9{fill:#2866af;}.cls-10{fill:#327be1;}.cls-11{fill:#3f4693;}.cls-12{fill:#4c50b3;}</style></defs><title>Logo</title><path class="cls-1" d="M236.33,23H36.67V477H236.33c125.36,0,227-101.63,227-227S361.69,23,236.33,23Zm0,281.7H200.77V192.57h35.56a56.07,56.07,0,0,1,0,112.13Z"/><path class="cls-2" d="M237.1,35.81H48.71V464.19H237.1c118.29,0,214.19-95.89,214.19-214.19S355.39,35.81,237.1,35.81Zm0,402.58H74.52V59H237.1C341.85,59,426.77,144,426.77,248.71S341.85,438.39,237.1,438.39Z"/><path class="cls-3" d="M236.7,53.43H69.31V444H236.7C344.55,444,432,356.56,432,248.71S344.55,53.43,236.7,53.43Zm0,249.75H202.16V194.24H236.7a54.47,54.47,0,0,1,0,108.94Z"/><path class="cls-4" d="M237.1,59H74.52V438.39H237.1c104.75,0,189.67-84.92,189.67-189.68S341.85,59,237.1,59Zm0,353.55H100.32V84.84H237.1a163.87,163.87,0,1,1,0,327.74Z"/><path class="cls-5" d="M236.71,80.21H96.08v337H236.71a168.5,168.5,0,0,0,0-337Zm0,222.9H202.22V194.31h34.49a54.4,54.4,0,0,1,0,108.8Z"/><path class="cls-6" d="M237.1,84.84H100.32V412.58H237.1a163.87,163.87,0,1,0,0-327.74Zm0,216.77H203.55V195.81H237.1a52.9,52.9,0,0,1,0,105.8Z"/><path class="cls-7" d="M236.67,106.33H122.24V391.09H236.67a142.38,142.38,0,1,0,0-284.76Zm0,196.93H202.08V194.15h34.59a54.56,54.56,0,1,1,0,109.11Z"/><path class="cls-8" d="M237.1,110.65h-111V386.77h111a138.06,138.06,0,1,0,0-276.12Zm0,191H203.55V195.81H237.1a52.9,52.9,0,0,1,0,105.8Z"/><path class="cls-9" d="M236.6,133.43H148.13V364H236.6a115.28,115.28,0,0,0,0-230.56Zm0,170.24H201.74V193.75H236.6a55,55,0,0,1,0,109.92Z"/><path class="cls-10" d="M237.1,137.74H151.94V359.68H237.1a111,111,0,0,0,0-221.94Zm0,163.87H203.55V195.81H237.1a52.9,52.9,0,0,1,0,105.8Z"/><path class="cls-11" d="M236.28,160.32H172.75V337.1h63.53a88.39,88.39,0,0,0,0-176.78Zm0,145H200.37V192.08h35.91a56.63,56.63,0,1,1,0,113.26Z"/><path class="cls-12" d="M237.1,166.13H177.74V331.29H237.1a82.58,82.58,0,0,0,0-165.16Zm3.18,142.49H197.22V188.8h43.06a59.91,59.91,0,0,1,0,119.82Z"/><path class="cls-1" d="M240.28,188.8H197.23V308.62h43.05a59.91,59.91,0,0,0,0-119.82Zm-1.52,106.54H209.19V202.08h29.57c25.76,0,49,20.88,49,46.63S264.52,295.34,238.76,295.34Z"/></svg>